<svg width="24" height="24" viewBox="0 0 24 24" fill="none" xmlns="http://www.w3.org/2000/svg">
<g id="lock_24px 2">
<path id="icon/action/lock_24px 2" d="M12 1.5C14.76 1.5 17 3.74 17 6.5V8.5H18C19.1 8.5 20 9.4 20 10.5V20.5C20 21.6 19.1 22.5 18 22.5H6C4.9 22.5 4 21.6 4 20.5V10.5C4 9.4 4.9 8.5 6 8.5H7V6.5C7 3.74 9.24 1.5 12 1.5ZM6 10.5V20.5H18V10.5H6ZM12 3.5C10.34 3.5 9 4.84 9 6.5V8.5H15V6.5C15 4.84 13.66 3.5 12 3.5Z" fill="#767676"/>
<path id="AD" d="M8.31996 18H7.16655L8.92401 12.9091H10.3111L12.0661 18H10.9126L9.63743 14.0724H9.59766L8.31996 18ZM8.24787 15.9989H10.9723V16.8391H8.24787V15.9989ZM14.4835 18H12.6788V12.9091H14.4984C15.0105 12.9091 15.4513 13.011 15.8208 13.2148C16.1904 13.417 16.4746 13.7079 16.6735 14.0874C16.874 14.4669 16.9743 14.9209 16.9743 15.4496C16.9743 15.9799 16.874 16.4356 16.6735 16.8168C16.4746 17.1979 16.1887 17.4904 15.8159 17.6942C15.4447 17.8981 15.0005 18 14.4835 18ZM13.7551 17.0778H14.4387C14.7569 17.0778 15.0246 17.0214 15.2417 16.9087C15.4604 16.7944 15.6245 16.6179 15.7338 16.3793C15.8449 16.139 15.9004 15.8291 15.9004 15.4496C15.9004 15.0734 15.8449 14.766 15.7338 14.5273C15.6245 14.2887 15.4612 14.113 15.2441 14.0004C15.027 13.8877 14.7594 13.8313 14.4412 13.8313H13.7551V17.0778Z" fill="#767676"/>
</g>
</svg>
